<svg id="wave" style="transform:rotate(180deg); transition: 0.3s" viewBox="0 0 1440 490" version="1.1" xmlns="http://www.w3.org/2000/svg"><defs><linearGradient id="sw-gradient-0" x1="0" x2="0" y1="1" y2="0"><stop stop-color="rgba(80, 0, 202, 1)" offset="0%"></stop><stop stop-color="rgba(80, 0, 202, 1)" offset="100%"></stop></linearGradient></defs><path style="transform:translate(0, 0px); opacity:1" fill="url(#sw-gradient-0)" d="M0,392L60,343C120,294,240,196,360,171.5C480,147,600,196,720,236.8C840,278,960,310,1080,302.2C1200,294,1320,245,1440,253.2C1560,261,1680,327,1800,343C1920,359,2040,327,2160,334.8C2280,343,2400,392,2520,400.2C2640,408,2760,376,2880,334.8C3000,294,3120,245,3240,187.8C3360,131,3480,65,3600,73.5C3720,82,3840,163,3960,228.7C4080,294,4200,343,4320,318.5C4440,294,4560,196,4680,138.8C4800,82,4920,65,5040,65.3C5160,65,5280,82,5400,98C5520,114,5640,131,5760,114.3C5880,98,6000,49,6120,24.5C6240,0,6360,0,6480,73.5C6600,147,6720,294,6840,302.2C6960,310,7080,180,7200,114.3C7320,49,7440,49,7560,81.7C7680,114,7800,180,7920,179.7C8040,180,8160,114,8280,130.7C8400,147,8520,245,8580,294L8640,343L8640,490L8580,490C8520,490,8400,490,8280,490C8160,490,8040,490,7920,490C7800,490,7680,490,7560,490C7440,490,7320,490,7200,490C7080,490,6960,490,6840,490C6720,490,6600,490,6480,490C6360,490,6240,490,6120,490C6000,490,5880,490,5760,490C5640,490,5520,490,5400,490C5280,490,5160,490,5040,490C4920,490,4800,490,4680,490C4560,490,4440,490,4320,490C4200,490,4080,490,3960,490C3840,490,3720,490,3600,490C3480,490,3360,490,3240,490C3120,490,3000,490,2880,490C2760,490,2640,490,2520,490C2400,490,2280,490,2160,490C2040,490,1920,490,1800,490C1680,490,1560,490,1440,490C1320,490,1200,490,1080,490C960,490,840,490,720,490C600,490,480,490,360,490C240,490,120,490,60,490L0,490Z"></path></svg>