<svg id="wave" style="transform:rotate(0deg); transition: 0.3s" viewBox="0 0 1440 490" version="1.1" xmlns="http://www.w3.org/2000/svg"><defs><linearGradient id="sw-gradient-0" x1="0" x2="0" y1="1" y2="0"><stop stop-color="rgba(80, 0, 202, 1)" offset="0%"></stop><stop stop-color="rgba(80, 0, 202, 1)" offset="100%"></stop></linearGradient></defs><path style="transform:translate(0, 0px); opacity:1" fill="url(#sw-gradient-0)" d="M0,245L60,269.5C120,294,240,343,360,375.7C480,408,600,425,720,383.8C840,343,960,245,1080,236.8C1200,229,1320,310,1440,285.8C1560,261,1680,131,1800,114.3C1920,98,2040,196,2160,196C2280,196,2400,98,2520,114.3C2640,131,2760,261,2880,318.5C3000,376,3120,359,3240,310.3C3360,261,3480,180,3600,147C3720,114,3840,131,3960,163.3C4080,196,4200,245,4320,261.3C4440,278,4560,261,4680,253.2C4800,245,4920,245,5040,277.7C5160,310,5280,376,5400,367.5C5520,359,5640,278,5760,277.7C5880,278,6000,359,6120,343C6240,327,6360,212,6480,212.3C6600,212,6720,327,6840,343C6960,359,7080,278,7200,236.8C7320,196,7440,196,7560,228.7C7680,261,7800,327,7920,343C8040,359,8160,327,8280,302.2C8400,278,8520,261,8580,253.2L8640,245L8640,490L8580,490C8520,490,8400,490,8280,490C8160,490,8040,490,7920,490C7800,490,7680,490,7560,490C7440,490,7320,490,7200,490C7080,490,6960,490,6840,490C6720,490,6600,490,6480,490C6360,490,6240,490,6120,490C6000,490,5880,490,5760,490C5640,490,5520,490,5400,490C5280,490,5160,490,5040,490C4920,490,4800,490,4680,490C4560,490,4440,490,4320,490C4200,490,4080,490,3960,490C3840,490,3720,490,3600,490C3480,490,3360,490,3240,490C3120,490,3000,490,2880,490C2760,490,2640,490,2520,490C2400,490,2280,490,2160,490C2040,490,1920,490,1800,490C1680,490,1560,490,1440,490C1320,490,1200,490,1080,490C960,490,840,490,720,490C600,490,480,490,360,490C240,490,120,490,60,490L0,490Z"></path></svg>